<?xml version="1.0" encoding="utf-8"?>
<!-- Generator: Adobe Illustrator 25.2.3, SVG Export Plug-In . SVG Version: 6.00 Build 0)  -->
<svg version="1.1" id="Layer_1" xmlns="http://www.w3.org/2000/svg" xmlns:xlink="http://www.w3.org/1999/xlink" x="0px" y="0px"
	 viewBox="0 0 103.7 103.7" style="enable-background:new 0 0 103.7 103.7;" xml:space="preserve">
<style type="text/css">
	.st0{fill:#010101;}
	.st1{fill:#FFFFFF;}
</style>
<circle class="st0" cx="51.8" cy="51.8" r="48.7"/>
<path class="st1" d="M80.3,72.4c-0.1-0.7-0.5-1.3-1.1-1.7L79,70.5c-1-0.6-2.3-0.4-3,0.5c-10.2,13-29.1,15.3-42.1,5
	c-13-10.2-15.3-29.1-5-42.1c8.5-10.9,23.4-14.5,36-8.8L60.3,32c-0.1,0.2-0.1,0.5,0.1,0.6c0.1,0.1,0.2,0.1,0.3,0.1l6.7-1.6l7.3-1.8
	c0.2-0.1,0.4-0.3,0.3-0.5l-1.3-7.4l-1.2-6.8c0-0.2-0.3-0.4-0.5-0.3c-0.1,0-0.2,0.1-0.3,0.2l-4.2,6.4c-17.5-8.4-38.4-1-46.8,16.5
	s-1,38.4,16.5,46.8c14.7,7,32.3,3,42.5-9.7C80.2,73.8,80.4,73.1,80.3,72.4z"/>
<path class="st1" d="M51.5,63.2c1.1,0,2-0.9,2-2v-6.8h6.9c1.1,0.2,2.1-0.5,2.3-1.6s-0.5-2.1-1.6-2.3c-0.2,0-0.5,0-0.7,0h-6.9v-6.9
	c0.2-1.1-0.5-2.1-1.6-2.3c-1.1-0.2-2.1,0.5-2.3,1.6c0,0.2,0,0.5,0,0.7v6.9h-6.9c-1.1-0.2-2.1,0.5-2.3,1.6s0.5,2.1,1.6,2.3
	c0.2,0,0.5,0,0.7,0h6.9v6.9C49.6,62.3,50.4,63.2,51.5,63.2z"/>
</svg>
