<?xml version="1.0" encoding="utf-8"?>
<!-- Generator: Adobe Illustrator 24.0.1, SVG Export Plug-In . SVG Version: 6.00 Build 0)  -->
<svg version="1.1" id="Layer_1" xmlns="http://www.w3.org/2000/svg" xmlns:xlink="http://www.w3.org/1999/xlink" x="0px" y="0px"
	 viewBox="0 0 200 200" style="enable-background:new 0 0 200 200;" xml:space="preserve">
<style type="text/css">
	.st0{fill:none;stroke:#000000;stroke-width:20;stroke-linecap:round;stroke-linejoin:round;stroke-miterlimit:10;}
	.st1{fill:none;stroke:#000000;stroke-width:10;stroke-linecap:round;stroke-linejoin:round;stroke-miterlimit:10;}
	.st2{stroke:#000000;stroke-width:3;stroke-miterlimit:10;}
</style>
<path class="st2" d="M163.34,152.87c-25.2,31.99-71.73,39.43-105.86,15.28C24.3,144.68,14.89,98.91,36.13,64.25
	c21.83-35.64,67.54-47.18,103.34-27.69c2.22,1.21,5,0.43,6.34-1.71l0.05-0.08c1.57-2.5,0.66-5.79-1.94-7.19
	C103.56,5.82,52.18,18.91,27.6,59.03C3.61,98.18,14.26,149.9,51.78,176.37c38.3,27.03,90.42,18.88,118.95-16.7
	c1.86-2.32,1.35-5.73-1.14-7.36l-0.59-0.39C167.16,150.71,164.71,151.14,163.34,152.87z"/>
<path d="M159.23,45.9c0.56-0.13,0.92-0.68,0.82-1.25l-3.33-18.93l-3.04-17.23c-0.17-0.97-1.45-1.24-1.99-0.41l-14.68,22.34
	l-14.68,22.34c-0.54,0.83,0.2,1.89,1.17,1.66l17.02-4.06L159.23,45.9z"/>
<g>
	<line class="st1" x1="77.53" y1="104.78" x2="122.47" y2="104.78"/>
	<line class="st1" x1="100" y1="82.31" x2="100" y2="127.25"/>
</g>
</svg>
