<?xml version="1.0" encoding="utf-8"?>
<!-- Generator: Adobe Illustrator 24.0.1, SVG Export Plug-In . SVG Version: 6.00 Build 0)  -->
<svg version="1.1" id="Layer_1" xmlns="http://www.w3.org/2000/svg" xmlns:xlink="http://www.w3.org/1999/xlink" x="0px" y="0px"
	 viewBox="0 0 200 200" style="enable-background:new 0 0 200 200;" xml:space="preserve">
<style type="text/css">
	.st0{fill:none;stroke:#000000;stroke-width:20;stroke-linecap:round;stroke-linejoin:round;stroke-miterlimit:10;}
	.st1{fill:none;stroke:#000000;stroke-width:10;stroke-linecap:round;stroke-linejoin:round;stroke-miterlimit:10;}
	.st2{stroke:#000000;stroke-width:3;stroke-miterlimit:10;}
</style>
<g>
	<path d="M173.27,155.48c-0.29-1.8-1.32-3.41-2.85-4.42l-0.59-0.39c-2.5-1.64-5.8-1.1-7.66,1.27
		c-25.08,31.84-70.69,38.43-103.82,14.98C25.73,143.86,16.54,99.1,37.41,65.03c20.23-33.02,61.64-45.37,96.33-29.62l-11.39,17.34
		c-0.54,0.83,0.2,1.89,1.17,1.66l17.02-4.06l18.7-4.46c0.56-0.13,0.92-0.68,0.82-1.25l-3.33-18.93l-3.04-17.23
		c-0.17-0.97-1.45-1.24-1.99-0.41L140.97,24.4C100.02,4.67,50.33,19.05,26.32,58.24C1.86,98.17,12.66,150.6,50.92,177.6
		c15.57,10.99,33.55,16.3,51.38,16.3c26.21,0,52.11-11.48,69.6-33.29C173.06,159.17,173.56,157.3,173.27,155.48z"/>
	<path d="M100,132.25c2.76,0,5-2.24,5-5v-17.47h17.47c2.76,0,5-2.24,5-5s-2.24-5-5-5H105V82.31c0-2.76-2.24-5-5-5s-5,2.24-5,5v17.47
		H77.53c-2.76,0-5,2.24-5,5s2.24,5,5,5H95v17.47C95,130.01,97.24,132.25,100,132.25z"/>
</g>
</svg>
