<?xml version="1.0" encoding="utf-8"?>
<!-- Generator: Adobe Illustrator 25.2.3, SVG Export Plug-In . SVG Version: 6.00 Build 0)  -->
<svg version="1.1" id="Layer_1" xmlns="http://www.w3.org/2000/svg" xmlns:xlink="http://www.w3.org/1999/xlink" x="0px" y="0px"
	 viewBox="0 0 97.5 97.5" style="enable-background:new 0 0 97.5 97.5;" xml:space="preserve">
<style type="text/css">
	.st0{fill:#FFFFFF;}
	.st1{fill:#010101;}
</style>
<circle class="st0" cx="48.7" cy="48.7" r="48.7"/>
<path class="st1" d="M79.7,32c-9.4-15.4-28.9-21.1-45.2-13.3l-4.2-6.5c-0.1-0.2-0.4-0.2-0.6-0.1c-0.1,0.1-0.2,0.2-0.2,0.3l-1.2,6.8
	L27,26.6c0,0.2,0.1,0.4,0.3,0.5l7.4,1.8l6.7,1.6c0.2,0.1,0.5-0.1,0.5-0.3c0-0.1,0-0.2-0.1-0.3L37.4,23c15.1-6.8,32.9,0,39.7,15.1
	s0,32.9-15.1,39.7c-12.5,5.6-27.3,2-35.8-8.7l0,0c-0.7-0.9-2-1.1-3-0.5L23,68.6c-0.6,0.4-1,1-1.1,1.7c-0.1,0.7,0.1,1.4,0.5,2
	c12.4,14.9,34.6,17,49.6,4.5C85.2,65.8,88.5,46.8,79.7,32z"/>
<path class="st1" d="M48.8,39.2c-1.1,0-2,0.9-2,2v11.7c0.1,1.2,1,2.2,2.2,2.3h14.6c1.1,0.2,2.1-0.5,2.3-1.6c0.2-1.1-0.5-2.1-1.6-2.3
	c-0.2,0-0.5,0-0.7,0H50.8V41.2C50.8,40.1,49.9,39.2,48.8,39.2z"/>
<path class="st1" d="M21.7,47c0-1.1-0.9-2-2-2h-5.2c-1.1-0.2-2.1,0.5-2.3,1.6c-0.2,1.1,0.5,2.1,1.6,2.3c0.2,0,0.5,0,0.7,0h5.2
	C20.8,49,21.7,48.1,21.7,47z"/>
<path class="st1" d="M16.3,36.2l5,1.5c0.2,0.1,0.4,0.1,0.6,0.1c1.1-0.1,1.9-1,1.8-2.1c-0.1-0.8-0.6-1.4-1.3-1.7l-5-1.5
	c-1.1-0.1-2.1,0.6-2.2,1.7C15.1,35,15.6,35.8,16.3,36.2L16.3,36.2z"/>
<path class="st1" d="M23.5,58.5c-0.3-1-1.4-1.6-2.5-1.3l-5,1.5c-1,0.4-1.5,1.6-1.1,2.6c0.3,0.7,0.9,1.2,1.7,1.3c0.2,0,0.4,0,0.6-0.1
	l5-1.5C23.2,60.6,23.8,59.5,23.5,58.5z"/>
</svg>
