<?xml version="1.0" encoding="utf-8"?>
<!-- Generator: Adobe Illustrator 24.0.1, SVG Export Plug-In . SVG Version: 6.00 Build 0)  -->
<svg version="1.1" id="Layer_1" xmlns="http://www.w3.org/2000/svg" xmlns:xlink="http://www.w3.org/1999/xlink" x="0px" y="0px"
	 viewBox="0 0 200 200" style="enable-background:new 0 0 200 200;" xml:space="preserve">
<style type="text/css">
	.st0{fill:none;stroke:#000000;stroke-width:20;stroke-linecap:round;stroke-linejoin:round;stroke-miterlimit:10;}
	.st1{fill:none;stroke:#000000;stroke-width:10;stroke-linecap:round;stroke-linejoin:round;stroke-miterlimit:10;}
	.st2{stroke:#000000;stroke-width:3;stroke-miterlimit:10;}
</style>
<g>
	<path d="M174.94,54c-24.01-39.19-73.7-53.57-114.65-33.84L49.56,3.83C49.02,3,47.74,3.27,47.57,4.24l-3.04,17.23L41.2,40.4
		c-0.1,0.57,0.26,1.12,0.82,1.25l18.7,4.46l17.02,4.06c0.96,0.23,1.71-0.84,1.17-1.66L67.52,31.17
		c34.69-15.75,76.11-3.4,96.33,29.62c20.87,34.07,11.67,78.82-20.94,101.9c-13.36,9.45-28.75,14.02-44.01,14.02
		c-22.57,0-44.85-10.01-59.81-29.01h0c-1.87-2.37-5.16-2.92-7.66-1.27l-0.59,0.39c-1.53,1-2.57,2.61-2.85,4.42
		c-0.29,1.82,0.21,3.69,1.37,5.14c17.49,21.81,43.39,33.29,69.6,33.29c17.83,0,35.81-5.31,51.38-16.3
		C188.6,146.36,199.4,93.93,174.94,54z"/>
	<path d="M96.48,72.34c-2.76,0-5,2.24-5,5v29.79c0,1.08,0.35,2.07,0.93,2.88c0.77,1.77,2.53,3.02,4.59,3.02h36.97c2.76,0,5-2.24,5-5
		s-2.24-5-5-5h-32.48V77.34C101.48,74.57,99.24,72.34,96.48,72.34z"/>
	<path d="M27.82,92.19c0-2.76-2.24-5-5-5H9.54c-2.76,0-5,2.24-5,5s2.24,5,5,5h13.28C25.58,97.19,27.82,94.95,27.82,92.19z"/>
	<path d="M14.18,64.67l12.71,3.85c0.48,0.15,0.97,0.22,1.45,0.22c2.15,0,4.13-1.39,4.78-3.55c0.8-2.64-0.69-5.43-3.34-6.23
		L17.07,55.1c-2.64-0.8-5.43,0.69-6.23,3.34C10.04,61.08,11.53,63.87,14.18,64.67z"/>
	<path d="M32.32,121.2c-0.8-2.64-3.59-4.14-6.23-3.34l-12.71,3.85c-2.64,0.8-4.14,3.59-3.34,6.23c0.65,2.16,2.64,3.55,4.78,3.55
		c0.48,0,0.97-0.07,1.45-0.22l12.71-3.85C31.63,126.64,33.12,123.84,32.32,121.2z"/>
</g>
</svg>
