<?xml version="1.0" encoding="utf-8"?>
<!-- Generator: Adobe Illustrator 24.0.1, SVG Export Plug-In . SVG Version: 6.00 Build 0)  -->
<svg version="1.1" id="Layer_1" xmlns="http://www.w3.org/2000/svg" xmlns:xlink="http://www.w3.org/1999/xlink" x="0px" y="0px"
	 viewBox="0 0 200 200" style="enable-background:new 0 0 200 200;" xml:space="preserve">
<style type="text/css">
	.st0{fill:none;stroke:#000000;stroke-width:20;stroke-linecap:round;stroke-linejoin:round;stroke-miterlimit:10;}
	.st1{fill:none;stroke:#000000;stroke-width:10;stroke-linecap:round;stroke-linejoin:round;stroke-miterlimit:10;}
	.st2{stroke:#000000;stroke-width:3;stroke-miterlimit:10;}
</style>
<path class="st2" d="M37.91,148.63c25.2,31.99,71.73,39.43,105.86,15.28c33.18-23.48,42.59-69.24,21.35-103.9
	C143.3,24.37,97.59,12.83,61.79,32.32c-2.22,1.21-5,0.43-6.34-1.71l-0.05-0.08c-1.57-2.5-0.66-5.79,1.94-7.19
	c40.36-21.76,91.75-8.67,116.33,31.45c23.99,39.16,13.34,90.87-24.19,117.35c-38.3,27.03-90.42,18.88-118.95-16.7
	c-1.86-2.32-1.35-5.73,1.14-7.36l0.59-0.39C34.1,146.47,36.55,146.9,37.91,148.63z"/>
<path d="M42.02,41.66c-0.56-0.13-0.92-0.68-0.82-1.25l3.33-18.93l3.04-17.23c0.17-0.97,1.45-1.24,1.99-0.41l14.68,22.34l14.68,22.34
	c0.54,0.83-0.2,1.89-1.17,1.66l-17.02-4.06L42.02,41.66z"/>
<line class="st1" x1="96.99" y1="108.02" x2="133.96" y2="108.02"/>
<line class="st1" x1="96.48" y1="77.34" x2="96.48" y2="107.12"/>
<line class="st1" x1="9.54" y1="92.19" x2="22.82" y2="92.19"/>
<line class="st1" x1="15.62" y1="59.88" x2="28.33" y2="63.73"/>
<line class="st1" x1="14.82" y1="126.5" x2="27.53" y2="122.65"/>
</svg>
