<?xml version="1.0" encoding="utf-8"?>
<!-- Generator: Adobe Illustrator 24.0.1, SVG Export Plug-In . SVG Version: 6.00 Build 0)  -->
<svg version="1.1" id="Layer_1" xmlns="http://www.w3.org/2000/svg" xmlns:xlink="http://www.w3.org/1999/xlink" x="0px" y="0px"
	 viewBox="0 0 200 200" style="enable-background:new 0 0 200 200;" xml:space="preserve">
<style type="text/css">
	.st0{fill:none;stroke:#000000;stroke-width:20;stroke-linecap:round;stroke-linejoin:round;stroke-miterlimit:10;}
	.st1{fill:none;stroke:#000000;stroke-width:10;stroke-linecap:round;stroke-linejoin:round;stroke-miterlimit:10;}
	.st2{stroke:#000000;stroke-width:3;stroke-miterlimit:10;}
</style>
<g>
	<path d="M199.48,60.29H0.52c-0.16,1.52-0.27,3.06-0.36,4.6h199.67C199.75,63.35,199.63,61.82,199.48,60.29z"/>
	<path d="M197.87,49.99H2.13c-0.32,1.52-0.6,3.06-0.85,4.6h197.45C198.47,53.04,198.19,51.51,197.87,49.99z"/>
	<path d="M100,170.57c55.22,0,99.99-44.76,100-99.98H0C0.01,125.82,44.78,170.57,100,170.57z"/>
	<path d="M0,64.89v5.68c0-1.91,0.06-3.8,0.16-5.68H0z"/>
	<path d="M200,70.6v-0.02C200,70.58,200,70.59,200,70.6L200,70.6z"/>
	<path d="M0,70.6c0-0.01,0-0.02,0-0.02L0,70.6L0,70.6z"/>
	<path d="M200,64.89h-0.16c0.11,1.88,0.16,3.77,0.16,5.68V64.89z"/>
	<path d="M193.18,41.28H6.82c-0.3,1.23-0.57,2.47-0.81,3.71h187.98C193.75,43.75,193.49,42.51,193.18,41.28z"/>
</g>
</svg>
