<svg id="Layer_1" data-name="Layer 1" xmlns="http://www.w3.org/2000/svg" viewBox="0 0 100 100"><defs><style>.cls-1{fill:#fff;}</style></defs><path class="cls-1" d="M76.42,43.68q-19.92-20-39.8-40.07A11.34,11.34,0,0,0,30.86,0L28.44,0,27.15.42a8,8,0,0,0-5.36,5.41c-1,3.2-.19,6.14,2.38,8.73L37.66,28.12Q48.51,39,59.36,50L30.46,79l-6.36,6.4a8.32,8.32,0,0,0-2.68,6.9,8,8,0,0,0,5.32,7,8.61,8.61,0,0,0,3,.57,8.21,8.21,0,0,0,5.89-2.67c13.91-14,27.5-27.66,40.93-41.23a9.16,9.16,0,0,0,2.16-3.38C79.86,49.44,79.06,46.34,76.42,43.68Z"/></svg>