<svg id="Layer_1" data-name="Layer 1" xmlns="http://www.w3.org/2000/svg" viewBox="0 0 200 200"><defs><style>.cls-1,.cls-2{stroke:#000;}.cls-1{stroke-miterlimit:10;stroke-width:3px;}.cls-2{fill:none;stroke-linecap:round;stroke-linejoin:round;stroke-width:10px;}</style></defs><title>new icons</title><path class="cls-1" d="M37.91,148.63A77.66,77.66,0,1,0,61.79,32.32a4.8,4.8,0,0,1-6.34-1.71l-.05-.08a5.09,5.09,0,0,1,1.93-7.19A87.67,87.67,0,1,1,30.52,155.43a5,5,0,0,1,1.14-7.36l.59-.39A4.24,4.24,0,0,1,37.91,148.63Z"/><path d="M42,41.66a1.1,1.1,0,0,1-.82-1.26l3.34-18.93,3-17.23a1.09,1.09,0,0,1,2-.41L64.23,26.17,78.91,48.51a1.09,1.09,0,0,1-1.17,1.66l-17-4.06Z"/><line class="cls-2" x1="96.99" y1="108.02" x2="133.96" y2="108.02"/><line class="cls-2" x1="96.48" y1="77.34" x2="96.48" y2="107.12"/><line class="cls-2" x1="9.54" y1="92.19" x2="22.82" y2="92.19"/><line class="cls-2" x1="15.62" y1="59.88" x2="28.33" y2="63.73"/><line class="cls-2" x1="14.82" y1="126.5" x2="27.53" y2="122.65"/></svg>