<svg id="Layer_1" data-name="Layer 1" xmlns="http://www.w3.org/2000/svg" viewBox="0 0 200 200"><title>homeIcon</title><path d="M197.9,86.52,152.76,47.45,102.46,3.92a3.74,3.74,0,0,0-4.92,0L47.24,47.45,2.1,86.52a3.76,3.76,0,0,0,2.46,6.6H25.64a21.53,21.53,0,0,0-.41,4v77.54A22.45,22.45,0,0,0,47.62,197H67.93a2.84,2.84,0,0,0,2.85-2.85v-56.7c0-15.24,11.06-28.91,26.22-30.44a29.29,29.29,0,0,1,32.22,29.06v58.08a2.84,2.84,0,0,0,2.85,2.85h20.31a22.45,22.45,0,0,0,22.39-22.38V97.08a21.53,21.53,0,0,0-.41-4h21.08A3.76,3.76,0,0,0,197.9,86.52Z"/></svg>