<?xml version="1.0" encoding="utf-8"?>
<!-- Generator: Adobe Illustrator 25.2.3, SVG Export Plug-In . SVG Version: 6.00 Build 0)  -->
<svg version="1.1" id="Layer_1" xmlns="http://www.w3.org/2000/svg" xmlns:xlink="http://www.w3.org/1999/xlink" x="0px" y="0px"
	 viewBox="0 0 100 100" style="enable-background:new 0 0 100 100;" xml:space="preserve">
<style type="text/css">
	.st0{fill:#F1F2F2;}
	.st1{fill:none;stroke:#F1F2F2;stroke-width:2;stroke-miterlimit:10;}
	.st2{fill:#6FBE44;}
	.st3{fill:#FEDB30;}
	.st4{fill:#333333;}
	.st5{fill:none;stroke:#000000;stroke-width:2;stroke-miterlimit:10;}
	.st6{fill:#FFFFFF;}
	.st7{fill:none;stroke:#000000;stroke-width:4;stroke-miterlimit:10;}
</style>
<path d="M49.87,15.04c-1.79,0-3.55,0.16-5.27,0.41l3.69-6.35l-4.38-2.54l-6.13,10.55c-0.01,0-0.02,0.01-0.03,0.01
	c0.01,0.01,0.01,0.01,0.02,0.02l-1.92,3.31l14.3,8.31l2.54-4.38l-6.89-4c1.33-0.17,2.68-0.28,4.06-0.28
	c17.33,0,31.43,14.1,31.43,31.43S67.2,82.97,49.87,82.97c-15.79,0-28.9-11.71-31.1-26.9c-1.71-0.05-3.42-0.13-5.13-0.23
	c2.14,18.1,17.57,32.18,36.23,32.18c20.12,0,36.5-16.37,36.5-36.5S69.99,15.04,49.87,15.04z"/>
<g>
	<path d="M41.63,43.96c0.19-1.27,0.54-2.38,1.05-3.34c0.52-0.96,1.17-1.76,1.95-2.4c0.78-0.64,1.68-1.12,2.69-1.45
		s2.11-0.49,3.29-0.49c1.19,0,2.28,0.17,3.25,0.51c0.98,0.34,1.81,0.82,2.52,1.43c0.7,0.61,1.24,1.34,1.62,2.18
		c0.38,0.85,0.57,1.77,0.57,2.78c0,0.86-0.1,1.61-0.31,2.26c-0.2,0.65-0.5,1.23-0.88,1.72c-0.38,0.5-0.84,0.91-1.39,1.25
		c-0.55,0.34-1.16,0.62-1.85,0.84c1.67,0.48,2.91,1.26,3.75,2.32c0.83,1.06,1.25,2.4,1.25,4c0,1.29-0.24,2.44-0.73,3.45
		c-0.48,1.01-1.14,1.86-1.97,2.55c-0.83,0.7-1.79,1.23-2.89,1.59c-1.1,0.37-2.26,0.55-3.5,0.55c-1.38,0-2.57-0.16-3.58-0.49
		c-1.01-0.33-1.87-0.8-2.6-1.42c-0.73-0.61-1.33-1.36-1.82-2.23c-0.48-0.87-0.9-1.85-1.23-2.93l1.73-0.73
		c0.46-0.2,0.9-0.25,1.31-0.17c0.42,0.09,0.72,0.32,0.9,0.69c0.2,0.4,0.42,0.82,0.67,1.28c0.25,0.45,0.57,0.87,0.96,1.25
		c0.39,0.38,0.88,0.7,1.45,0.95c0.58,0.25,1.29,0.38,2.13,0.38c0.86,0,1.61-0.14,2.25-0.42c0.64-0.28,1.17-0.64,1.6-1.08
		c0.43-0.44,0.75-0.94,0.96-1.48c0.21-0.55,0.32-1.09,0.32-1.62c0-0.67-0.08-1.29-0.24-1.85c-0.16-0.57-0.48-1.05-0.94-1.44
		c-0.47-0.4-1.12-0.71-1.98-0.94c-0.85-0.23-1.97-0.34-3.35-0.34v-2.89c1.13-0.01,2.08-0.13,2.86-0.34s1.4-0.52,1.86-0.9
		c0.47-0.38,0.8-0.84,1.01-1.37c0.21-0.53,0.31-1.12,0.31-1.75c0-0.68-0.11-1.29-0.32-1.81c-0.21-0.52-0.51-0.96-0.89-1.31
		c-0.38-0.35-0.83-0.62-1.35-0.79c-0.52-0.17-1.1-0.26-1.73-0.26c-0.61,0-1.17,0.09-1.69,0.26c-0.52,0.17-0.98,0.42-1.38,0.73
		c-0.4,0.31-0.74,0.68-1.02,1.11c-0.27,0.43-0.47,0.9-0.6,1.41c-0.17,0.51-0.41,0.85-0.7,1.03c-0.29,0.17-0.72,0.21-1.28,0.11
		L41.63,43.96z"/>
</g>
<g>
	<path d="M13.8,45.18c-0.19,1.08-0.34,2.18-0.43,3.28l-0.04,0.5l5.98,0.52l0.04-0.5c0.08-0.92,0.2-1.84,0.36-2.74l0.09-0.49
		l-5.91-1.06L13.8,45.18z"/>
	<path d="M27.41,22.62l-0.39,0.31c-0.86,0.69-1.69,1.42-2.48,2.18l-0.36,0.35l4.16,4.33l0.36-0.35c0.66-0.63,1.36-1.25,2.08-1.83
		l0.39-0.31L27.41,22.62z"/>
	<path d="M18.39,32.85c-0.56,0.94-1.09,1.93-1.56,2.92l-0.22,0.45l5.41,2.59l0.22-0.45c0.4-0.83,0.84-1.65,1.3-2.43l0.26-0.43
		l-5.15-3.07L18.39,32.85z"/>
</g>
</svg>
