<?xml version="1.0" encoding="UTF-8" standalone="no"?>
<!-- Created with Inkscape (http://www.inkscape.org/) -->

<svg
   xmlns:dc="http://purl.org/dc/elements/1.1/"
   xmlns:cc="http://creativecommons.org/ns#"
   xmlns:rdf="http://www.w3.org/1999/02/22-rdf-syntax-ns#"
   xmlns:svg="http://www.w3.org/2000/svg"
   xmlns="http://www.w3.org/2000/svg"
   xmlns:sodipodi="http://sodipodi.sourceforge.net/DTD/sodipodi-0.dtd"
   xmlns:inkscape="http://www.inkscape.org/namespaces/inkscape"
   width="45.747002mm"
   height="8.066mm"
   viewBox="0 0 45.747002 8.066"
   version="1.1"
   id="svg8"
   inkscape:version="0.92.3 (2405546, 2018-03-11)"
   sodipodi:docname="chucks-pick-3-logo.svg">
  <defs
     id="defs2" />
  <sodipodi:namedview
     id="base"
     pagecolor="#ffffff"
     bordercolor="#666666"
     borderopacity="1.0"
     inkscape:pageopacity="0.0"
     inkscape:pageshadow="2"
     inkscape:zoom="1.979899"
     inkscape:cx="371.44213"
     inkscape:cy="181.97351"
     inkscape:document-units="mm"
     inkscape:current-layer="layer1"
     showgrid="false"
     inkscape:window-width="2400"
     inkscape:window-height="1271"
     inkscape:window-x="-9"
     inkscape:window-y="-9"
     inkscape:window-maximized="1" />
  <metadata
     id="metadata5">
    <rdf:RDF>
      <cc:Work
         rdf:about="">
        <dc:format>image/svg+xml</dc:format>
        <dc:type
           rdf:resource="http://purl.org/dc/dcmitype/StillImage" />
        <dc:title></dc:title>
      </cc:Work>
    </rdf:RDF>
  </metadata>
  <g
     inkscape:label="Layer 1"
     inkscape:groupmode="layer"
     id="layer1"
     transform="translate(0,-288.934)">
    <g
       id="g957"
       transform="translate(-41.224601,175.53442)">
      <g
         id="text821"
         style="font-style:normal;font-variant:normal;font-weight:normal;font-stretch:normal;font-size:10.58333302px;line-height:6.61458302px;font-family:'Alex Brush';-inkscape-font-specification:'Alex Brush';letter-spacing:0px;word-spacing:0px;fill:#4CAF50;fill-opacity:1;stroke:#4caf50;stroke-width:0.25;stroke-miterlimit:4;stroke-dasharray:none;stroke-opacity:1"
         aria-label="Chuck's Pick 3">
        <path
           id="path823"
           style="font-style:normal;font-variant:normal;font-weight:normal;font-stretch:normal;font-size:11.28888893px;font-family:'Freestyle Script';-inkscape-font-specification:'Freestyle Script';fill:#4caf50;fill-opacity:1;stroke:#4caf50;stroke-width:0.25;stroke-miterlimit:4;stroke-dasharray:none;stroke-opacity:1"
           d="m 46.073518,113.61807 q 0.369314,0 0.567752,0.26459 0.159852,0.20946 0.159852,0.50712 0,0.53467 -0.35829,1.21818 -0.314193,0.5898 -0.782726,1.05833 -0.30868,0.30317 -0.485069,0.30317 -0.115755,0 -0.214974,-0.11575 -0.07166,-0.0827 -0.07166,-0.18742 0,-0.19292 0.336241,-0.44097 0.474045,-0.35278 0.755165,-0.7717 0.413412,-0.60634 0.413412,-1.02526 0,-0.17088 -0.07717,-0.25356 -0.07166,-0.0827 -0.220487,-0.0827 -0.303168,0 -0.859895,0.44097 -0.633898,0.49609 -1.339453,1.35048 -0.898481,1.08589 -1.367014,2.13871 -0.48507,1.09141 -0.48507,1.86311 0,0.36932 0.214974,0.62839 0.237023,0.29214 0.578776,0.29214 0.595313,0 1.499306,-0.92604 0.270095,-0.28112 0.655946,-0.8158 0.253559,-0.34175 0.325217,-0.48507 0.08268,-0.15985 0.192925,-0.15985 0.121268,0 0.121268,0.11575 0,0.24805 -0.617361,1.11346 -0.512631,0.72209 -1.129992,1.1796 -0.694531,0.51263 -1.311892,0.51263 -0.644922,0 -0.9977,-0.57878 -0.225998,-0.36931 -0.225998,-0.84336 0,-1.19062 1.124479,-3.00412 0.959115,-1.5434 2.02296,-2.48598 0.92053,-0.81029 1.576476,-0.81029 z"
           inkscape:connector-curvature="0" />
        <path
           id="path825"
           style="font-style:normal;font-variant:normal;font-weight:normal;font-stretch:normal;font-size:11.28888893px;font-family:'Freestyle Script';-inkscape-font-specification:'Freestyle Script';fill:#4caf50;fill-opacity:1;stroke:#4caf50;stroke-width:0.25;stroke-miterlimit:4;stroke-dasharray:none;stroke-opacity:1"
           d="m 47.164924,118.45223 q 0.4079,-0.42443 0.815799,-0.71107 0.523654,-0.3638 0.749653,-0.3638 0.09371,0 0.181901,0.0772 0.09922,0.0882 0.09922,0.20395 0,0.14883 -0.237022,0.46302 -0.457509,0.60634 -0.694531,1.10243 -0.209462,0.42995 -0.209462,0.58429 0,0.14883 0.143316,0.14883 0.297656,0 1.003212,-1.05833 0.143316,-0.21498 0.259071,-0.21498 0.115755,0 0.115755,0.13229 0,0.21498 -0.418924,0.82131 -0.363802,0.52917 -0.760677,0.81029 -0.28112,0.19293 -0.507118,0.19293 -0.237022,0 -0.341753,-0.20395 -0.06615,-0.12678 -0.06615,-0.28112 0,-0.49058 0.347265,-1.11897 0.08268,-0.14883 0.496094,-0.84887 -1.124479,0.56775 -1.901692,2.45291 -0.07166,0.21497 -0.220487,0.21497 -0.10473,0 -0.170876,-0.0717 -0.06615,-0.0772 -0.06615,-0.18741 0,-0.1819 0.352778,-1.03077 0.655946,-1.57648 1.223698,-2.66789 0.567751,-1.10243 1.262283,-2.28754 0.165364,-0.28663 0.259071,-0.38585 0.09371,-0.0992 0.198437,-0.0992 0.09922,0 0.170877,0.10473 0.05512,0.0772 0.05512,0.17639 0,0.15434 -0.176388,0.41341 -0.595313,0.92053 -1.185113,2.02296 -0.633898,1.1796 -0.777214,1.60955 z"
           inkscape:connector-curvature="0" />
        <path
           id="path827"
           style="font-style:normal;font-variant:normal;font-weight:normal;font-stretch:normal;font-size:11.28888893px;font-family:'Freestyle Script';-inkscape-font-specification:'Freestyle Script';fill:#4caf50;fill-opacity:1;stroke:#4caf50;stroke-width:0.25;stroke-miterlimit:4;stroke-dasharray:none;stroke-opacity:1"
           d="m 50.891139,119.86334 q -0.237022,0.33073 -0.418923,0.52917 -0.319705,0.35278 -0.633898,0.35278 -0.270095,0 -0.418923,-0.24254 -0.104731,-0.17087 -0.104731,-0.4079 0,-0.71106 0.606336,-1.63159 0.28112,-0.42995 0.556728,-0.65595 0.214974,-0.1819 0.352778,-0.1819 0.07717,0 0.143316,0.0661 0.05512,0.0606 0.05512,0.12127 0,0.10473 -0.203949,0.34176 -0.457509,0.5457 -0.694532,1.00321 -0.275607,0.53468 -0.275607,0.83784 0,0.0772 0.03307,0.12127 0.03858,0.0386 0.10473,0.0386 0.28112,0 0.782726,-0.80478 0.259071,-0.41892 0.446485,-0.92604 0.09922,-0.27561 0.259071,-0.49058 0.15434,-0.19293 0.303168,-0.19293 0.08268,0 0.148828,0.0717 0.07166,0.0772 0.07166,0.17088 0,0.19844 -0.380338,0.89297 -0.259071,0.47955 -0.259071,0.79926 0,0.34175 0.181901,0.58429 0.04961,0.0661 0.303168,0.20946 0.121267,0.0717 0.121267,0.23151 0,0.0992 -0.08819,0.17088 -0.08268,0.0717 -0.20395,0.0717 -0.275607,0 -0.501606,-0.22048 -0.203949,-0.19844 -0.259071,-0.57327 -0.01102,-0.0496 -0.02756,-0.28663 z"
           inkscape:connector-curvature="0" />
        <path
           id="path829"
           style="font-style:normal;font-variant:normal;font-weight:normal;font-stretch:normal;font-size:11.28888893px;font-family:'Freestyle Script';-inkscape-font-specification:'Freestyle Script';fill:#4caf50;fill-opacity:1;stroke:#4caf50;stroke-width:0.25;stroke-miterlimit:4;stroke-dasharray:none;stroke-opacity:1"
           d="m 54.281114,117.28917 q 0.43546,0 0.43546,0.45751 0,0.40238 -0.314193,0.81028 -0.242535,0.30868 -0.424436,0.30868 -0.15434,0 -0.15434,-0.17639 0,-0.0937 0.0441,-0.14882 0.01654,-0.0221 0.132292,-0.12678 0.09922,-0.0937 0.203949,-0.28112 0.07166,-0.12678 0.07166,-0.20395 0,-0.0882 -0.09922,-0.0882 -0.115756,0 -0.352778,0.1819 -0.374826,0.29215 -0.749653,0.91502 -0.385851,0.65044 -0.385851,1.02526 0,0.12127 0.07166,0.21498 0.104731,0.14331 0.28112,0.14331 0.347266,0 0.821311,-0.42995 0.402387,-0.36931 0.677995,-0.73862 0.143316,-0.20395 0.248047,-0.20395 0.06063,0 0.110243,0.0551 0.0441,0.0551 0.0441,0.11024 0,0.20395 -0.523655,0.79375 -0.832335,0.92604 -1.510329,0.92604 -0.4079,0 -0.622874,-0.29214 -0.15434,-0.21498 -0.15434,-0.50712 0,-0.57326 0.474045,-1.32843 0.457509,-0.72209 1.058333,-1.16306 0.352778,-0.25356 0.617362,-0.25356 z"
           inkscape:connector-curvature="0" />
        <path
           id="path831"
           style="font-style:normal;font-variant:normal;font-weight:normal;font-stretch:normal;font-size:11.28888893px;font-family:'Freestyle Script';-inkscape-font-specification:'Freestyle Script';fill:#4caf50;fill-opacity:1;stroke:#4caf50;stroke-width:0.25;stroke-miterlimit:4;stroke-dasharray:none;stroke-opacity:1"
           d="m 57.632502,118.3475 q -0.35829,0.88746 -0.35829,1.35048 0,0.226 0.08819,0.37482 0.110243,0.18742 0.292144,0.18742 0.374826,0 0.865408,-0.50161 0.325217,-0.3197 0.545703,-0.65043 0.143316,-0.22049 0.270096,-0.22049 0.126779,0 0.126779,0.12678 0,0.20946 -0.507118,0.8599 -0.749653,0.96462 -1.455208,0.96462 -0.424436,0 -0.600825,-0.41341 -0.132292,-0.30317 -0.132292,-0.63941 0,-0.28112 0.132292,-0.83233 -0.35829,0.29765 -1.085894,1.45521 -0.192925,0.31419 -0.352778,0.31419 -0.08268,0 -0.143316,-0.0717 -0.06063,-0.0772 -0.06063,-0.15434 0,-0.22049 0.578776,-1.47174 1.019749,-2.18833 2.182813,-3.68212 0.628385,-0.8158 1.129991,-1.19063 0.451997,-0.34175 0.722092,-0.34175 0.121268,0 0.214974,0.0992 0.121268,0.12127 0.121268,0.29765 0,0.46854 -0.490582,1.20165 -0.51263,0.75517 -1.74184,1.82453 -0.689019,0.59531 -1.240235,0.93706 -0.07166,0.14332 -0.402387,0.83785 0.689019,-0.74414 1.091406,-1.02526 0.259072,-0.17639 0.700044,-0.36932 0.297656,-0.12678 0.429948,-0.12678 0.07166,0 0.126779,0.0551 0.06063,0.0496 0.06063,0.13229 0,0.1819 -0.248047,0.25356 -0.418923,0.12678 -0.859896,0.41892 z m -0.474045,-0.94809 q 0.903993,-0.59531 1.686719,-1.51584 0.391363,-0.45751 0.628385,-0.88195 0.165365,-0.29765 0.165365,-0.42443 0,-0.12678 -0.115755,-0.12678 -0.308681,0 -1.063846,0.94809 -0.622873,0.78824 -1.300868,2.00091 z"
           inkscape:connector-curvature="0" />
        <path
           id="path833"
           style="font-style:normal;font-variant:normal;font-weight:normal;font-stretch:normal;font-size:11.28888893px;font-family:'Freestyle Script';-inkscape-font-specification:'Freestyle Script';fill:#4caf50;fill-opacity:1;stroke:#4caf50;stroke-width:0.25;stroke-miterlimit:4;stroke-dasharray:none;stroke-opacity:1"
           d="m 62.802902,113.52437 q 0.07717,0 0.137804,0.0441 0.09371,0.0717 0.09371,0.19293 0,0.23702 -0.655946,1.49379 -0.231511,0.44098 -0.352778,0.54019 -0.08819,0.0717 -0.170877,0.0717 -0.192925,0 -0.192925,-0.25907 0,-0.15985 0.198437,-0.54019 0.479557,-0.98116 0.518143,-1.08589 0.176388,-0.45751 0.424435,-0.45751 z"
           inkscape:connector-curvature="0" />
        <path
           id="path835"
           style="font-style:normal;font-variant:normal;font-weight:normal;font-stretch:normal;font-size:11.28888893px;font-family:'Freestyle Script';-inkscape-font-specification:'Freestyle Script';fill:#4caf50;fill-opacity:1;stroke:#4caf50;stroke-width:0.25;stroke-miterlimit:4;stroke-dasharray:none;stroke-opacity:1"
           d="m 63.348605,117.04663 q 0.341753,0 0.51263,0.12127 0.170876,0.12127 0.170876,0.36931 0,0.32522 -0.242534,0.62839 -0.231511,0.28663 -0.694531,0.46302 -0.25356,0.0937 -0.424436,0.0937 -0.231511,0 -0.231511,-0.20395 0,-0.13781 0.132292,-0.20946 0.03307,-0.0165 0.374826,-0.0937 0.20395,-0.0441 0.374827,-0.19293 0.148828,-0.12678 0.148828,-0.2756 0,-0.11576 -0.06615,-0.17088 -0.06615,-0.0551 -0.198437,-0.0551 -0.319705,0 -0.705556,0.25907 -0.446484,0.29214 -0.446484,0.69453 0,0.28663 0.292144,0.71658 0.325217,0.46853 0.325217,0.79375 0,0.48507 -0.429948,0.76068 -0.264583,0.17087 -0.600825,0.17087 -0.529166,0 -0.804774,-0.38033 -0.192925,-0.2701 -0.192925,-0.63941 0,-0.42995 0.220486,-0.7221 0.143316,-0.19292 0.297656,-0.19292 0.137804,0 0.137804,0.11024 0,0.0441 -0.04961,0.13229 -0.126779,0.23703 -0.126779,0.55673 0,0.2701 0.192925,0.45751 0.170877,0.16536 0.391363,0.16536 0.214974,0 0.336241,-0.14331 0.09922,-0.12127 0.09922,-0.30868 0,-0.23151 -0.264583,-0.60083 -0.363802,-0.50712 -0.363802,-0.92053 0,-0.55121 0.600824,-0.97565 0.584289,-0.4079 1.234723,-0.4079 z"
           inkscape:connector-curvature="0" />
        <path
           id="path837"
           style="font-style:normal;font-variant:normal;font-weight:normal;font-stretch:normal;font-size:11.28888893px;font-family:'Freestyle Script';-inkscape-font-specification:'Freestyle Script';fill:#4caf50;fill-opacity:1;stroke:#4caf50;stroke-width:0.25;stroke-miterlimit:4;stroke-dasharray:none;stroke-opacity:1"
           d="m 68.684368,118.07189 -0.07717,0.16537 q -0.573264,1.19062 -0.766189,1.69774 -0.297656,0.79375 -0.336242,0.92604 -0.115755,0.36932 -0.303168,0.36932 -0.132292,0 -0.225998,-0.12127 -0.08268,-0.10473 -0.08268,-0.226 0,-0.47404 1.218185,-2.9931 -0.220486,-0.16536 -0.220486,-0.33073 0,-0.12678 0.110243,-0.22048 0.09371,-0.0772 0.20395,-0.0772 0.07717,0 0.20395,0.0386 0.89848,-1.70877 1.052821,-2.1773 -0.137804,0.0772 -0.352778,0.22049 -0.121267,0.0772 -0.214974,0.0772 -0.104731,0 -0.170877,-0.10473 -0.0441,-0.0717 -0.0441,-0.14883 0,-0.25907 0.446484,-0.55673 0.35829,-0.23702 0.666971,-0.39687 0.04961,-0.1323 0.06063,-0.1819 0.05512,-0.20947 0.115755,-0.28112 0.06063,-0.0717 0.187413,-0.0717 0.259071,0 0.259071,0.28663 0.380339,-0.11024 0.672483,-0.16537 0.292144,-0.0551 0.496094,-0.0551 0.534678,0 0.903993,0.4079 0.347265,0.38585 0.347265,0.86541 0,0.83234 -0.694531,1.66467 -0.595313,0.70556 -1.477257,1.10243 -0.760677,0.33624 -1.521354,0.33624 -0.181901,0 -0.457509,-0.0496 z m 1.543403,-3.36241 q -0.181901,0.5457 -0.595313,1.40009 -0.507118,1.03628 -0.655946,1.35599 0.303169,0.0551 0.424436,0.0551 0.628385,0 1.466233,-0.50712 0.810286,-0.49609 1.267795,-1.22921 0.28112,-0.44648 0.28112,-0.79375 0,-0.31419 -0.214974,-0.46853 -0.209462,-0.15986 -0.63941,-0.15986 -0.325217,0 -0.661458,0.0882 -0.33073,0.0827 -0.672483,0.25907 z"
           inkscape:connector-curvature="0" />
        <path
           id="path839"
           style="font-style:normal;font-variant:normal;font-weight:normal;font-stretch:normal;font-size:11.28888893px;font-family:'Freestyle Script';-inkscape-font-specification:'Freestyle Script';fill:#4caf50;fill-opacity:1;stroke:#4caf50;stroke-width:0.25;stroke-miterlimit:4;stroke-dasharray:none;stroke-opacity:1"
           d="m 72.912189,117.40492 q 0.09371,0 0.154341,0.0717 0.0441,0.0606 0.0441,0.12127 0,0.0992 -0.159853,0.33073 -0.573263,0.88745 -0.815798,1.46072 -0.259071,0.5898 -0.457509,1.21267 -0.08819,0.27561 -0.275608,0.27561 -0.110243,0 -0.176388,-0.0882 -0.06063,-0.0716 -0.06063,-0.15434 0,-0.16536 0.352778,-1.10243 0.275607,-0.73862 0.892968,-1.63159 0.198438,-0.29215 0.297657,-0.39137 0.09922,-0.10473 0.203949,-0.10473 z m 1.047309,-2.04501 q 0.248047,0 0.248047,0.25356 0,0.23151 -0.242534,0.51263 -0.231511,0.2701 -0.446485,0.2701 -0.104731,0 -0.170877,-0.0772 -0.06615,-0.0717 -0.06615,-0.17639 0,-0.26458 0.292144,-0.56224 0.214974,-0.22049 0.38585,-0.22049 z"
           inkscape:connector-curvature="0" />
        <path
           id="path841"
           style="font-style:normal;font-variant:normal;font-weight:normal;font-stretch:normal;font-size:11.28888893px;font-family:'Freestyle Script';-inkscape-font-specification:'Freestyle Script';fill:#4caf50;fill-opacity:1;stroke:#4caf50;stroke-width:0.25;stroke-miterlimit:4;stroke-dasharray:none;stroke-opacity:1"
           d="m 74.96271,117.28917 q 0.43546,0 0.43546,0.45751 0,0.40238 -0.314192,0.81028 -0.242535,0.30868 -0.424436,0.30868 -0.15434,0 -0.15434,-0.17639 0,-0.0937 0.0441,-0.14882 0.01654,-0.0221 0.132292,-0.12678 0.09922,-0.0937 0.203949,-0.28112 0.07166,-0.12678 0.07166,-0.20395 0,-0.0882 -0.09922,-0.0882 -0.115755,0 -0.352777,0.1819 -0.374827,0.29215 -0.749653,0.91502 -0.385851,0.65044 -0.385851,1.02526 0,0.12127 0.07166,0.21498 0.104731,0.14331 0.28112,0.14331 0.347266,0 0.821311,-0.42995 0.402387,-0.36931 0.677995,-0.73862 0.143316,-0.20395 0.248046,-0.20395 0.06063,0 0.110243,0.0551 0.0441,0.0551 0.0441,0.11024 0,0.20395 -0.523655,0.79375 -0.832335,0.92604 -1.51033,0.92604 -0.407899,0 -0.622873,-0.29214 -0.15434,-0.21498 -0.15434,-0.50712 0,-0.57326 0.474045,-1.32843 0.457509,-0.72209 1.058333,-1.16306 0.352778,-0.25356 0.617361,-0.25356 z"
           inkscape:connector-curvature="0" />
        <path
           id="path843"
           style="font-style:normal;font-variant:normal;font-weight:normal;font-stretch:normal;font-size:11.28888893px;font-family:'Freestyle Script';-inkscape-font-specification:'Freestyle Script';fill:#4caf50;fill-opacity:1;stroke:#4caf50;stroke-width:0.25;stroke-miterlimit:4;stroke-dasharray:none;stroke-opacity:1"
           d="m 78.314099,118.3475 q -0.35829,0.88746 -0.35829,1.35048 0,0.226 0.08819,0.37482 0.110243,0.18742 0.292144,0.18742 0.374826,0 0.865408,-0.50161 0.325217,-0.3197 0.545703,-0.65043 0.143316,-0.22049 0.270095,-0.22049 0.12678,0 0.12678,0.12678 0,0.20946 -0.507118,0.8599 -0.749653,0.96462 -1.455209,0.96462 -0.424435,0 -0.600824,-0.41341 -0.132292,-0.30317 -0.132292,-0.63941 0,-0.28112 0.132292,-0.83233 -0.35829,0.29765 -1.085894,1.45521 -0.192926,0.31419 -0.352778,0.31419 -0.08268,0 -0.143316,-0.0717 -0.06063,-0.0772 -0.06063,-0.15434 0,-0.22049 0.578776,-1.47174 1.019748,-2.18833 2.182813,-3.68212 0.628385,-0.8158 1.129991,-1.19063 0.451997,-0.34175 0.722092,-0.34175 0.121267,0 0.214974,0.0992 0.121267,0.12127 0.121267,0.29765 0,0.46854 -0.490581,1.20165 -0.51263,0.75517 -1.74184,1.82453 -0.68902,0.59531 -1.240235,0.93706 -0.07166,0.14332 -0.402387,0.83785 0.689019,-0.74414 1.091406,-1.02526 0.259071,-0.17639 0.700044,-0.36932 0.297656,-0.12678 0.429948,-0.12678 0.07166,0 0.126779,0.0551 0.06063,0.0496 0.06063,0.13229 0,0.1819 -0.248047,0.25356 -0.418924,0.12678 -0.859896,0.41892 z m -0.474045,-0.94809 q 0.903993,-0.59531 1.686719,-1.51584 0.391363,-0.45751 0.628385,-0.88195 0.165365,-0.29765 0.165365,-0.42443 0,-0.12678 -0.115756,-0.12678 -0.30868,0 -1.063845,0.94809 -0.622873,0.78824 -1.300868,2.00091 z"
           inkscape:connector-curvature="0" />
        <path
           id="path845"
           style="font-style:normal;font-variant:normal;font-weight:normal;font-stretch:normal;font-size:11.28888893px;font-family:'Freestyle Script';-inkscape-font-specification:'Freestyle Script';fill:#4caf50;fill-opacity:1;stroke:#4caf50;stroke-width:0.25;stroke-miterlimit:4;stroke-dasharray:none;stroke-opacity:1"
           d="m 85.749995,117.57029 q 0.275608,0.11575 0.391363,0.25907 0.170877,0.20395 0.170877,0.56775 0,0.89848 -0.755165,1.7253 -0.755165,0.82683 -1.554427,0.82683 -0.490582,0 -0.799262,-0.4079 -0.220486,-0.29215 -0.220486,-0.65044 0,-0.58428 0.451996,-0.58428 0.270096,0 0.270096,0.20395 0,0.0441 -0.01103,0.11575 -0.01654,0.0937 -0.01654,0.18741 0,0.25907 0.126779,0.39688 0.143316,0.14883 0.336242,0.14883 0.468533,0 1.008724,-0.65595 0.51263,-0.62839 0.51263,-1.19614 0,-0.28663 -0.137804,-0.45199 -0.148828,-0.17639 -0.413411,-0.17639 -0.104731,0 -0.209462,0.0331 -0.12678,0.0386 -0.192926,0.0386 -0.159852,0 -0.159852,-0.21498 0,-0.18741 0.126779,-0.30868 0.07166,-0.0717 0.303169,-0.13229 0.457509,-0.11576 0.777213,-0.31971 0.20395,-0.13229 0.325217,-0.35277 0.06063,-0.11576 0.06063,-0.24254 0,-0.15985 -0.08819,-0.23702 -0.08268,-0.0772 -0.259072,-0.0772 -0.297656,0 -0.617361,0.15434 -0.08268,0.0386 -0.391362,0.226 -0.08268,0.0551 -0.181902,0.0551 -0.187413,0 -0.187413,-0.20395 0,-0.1819 0.275608,-0.38034 0.644922,-0.45751 1.262283,-0.45751 0.369314,0 0.622873,0.226 0.270096,0.24254 0.270096,0.57878 0,0.44648 -0.385851,0.83784 -0.209462,0.22049 -0.711068,0.46854 z"
           inkscape:connector-curvature="0" />
      </g>
    </g>
  </g>
</svg>
