<svg id="Layer_1" data-name="Layer 1" xmlns="http://www.w3.org/2000/svg" viewBox="0 0 238.08 82.1"><defs><style>.cls-1{fill:#d6d6d6;}</style></defs><title>cp3-web-icons</title><path class="cls-1" d="M234.54,30.46A39.19,39.19,0,0,0,180.25,6.79c-.47.22-1.06.33-1,1.14.17,1.39.19,2.79.32,4.18.07.82.33,1.17,1.27.66a33,33,0,0,1,27.19-2.42c14.17,4.71,23.8,19.17,22.66,33.93A2,2,0,0,1,230,45.8c-1.72,1.5-3.47,3-5.09,4.57q-12.22,12.29-24.5,24.52c-.34.33-.61.8-1.13.84a27.55,27.55,0,0,1-7.2-.33l-.25-.38,16.25-16.26a7.21,7.21,0,0,0-3.53,1.76c-4.53,4.63-9.14,9.19-13.73,13.76-.34.35-.6.83-1.28.67a31.15,31.15,0,0,1-5.74-2l11.26-11.25a3.8,3.8,0,0,0-3.18,1.3c-2.79,2.92-5.71,5.71-8.52,8.61a1.29,1.29,0,0,1-1.93.26c-1-.65-2-1.27-3.08-1.85-.77-.44-.9-.77-.17-1.47,1.89-1.78,3.69-3.65,5.52-5.5.25-.25.65-.42.68-.88-1.76-.07-1.76-.07-3,1.12-1.53,1.53-3.08,3-4.58,4.59-.45.47-.76.55-1.25.06-1-1-2-1.88-3-2.79-.48-.43-.42-.74,0-1.14.91-.81,1.8-1.66,2.77-2.55-2.48-1.22-3,1.11-4.37,1.8-11.06-13.13-10.65-35.21,5.77-48-1.33-.95-2.64-1.81-3.84-2.79-.66-.54-1.05-.41-1.6.1-10.86,10-15.46,22.34-12.68,36.86,2.9,15.15,12.09,25.47,26.78,30.07,14.85,4.65,28.4,1.28,39.38-9.74S238.94,45.34,234.54,30.46Zm-4.32,17.62a31.8,31.8,0,0,1-7.11,15.46A33.43,33.43,0,0,1,203,75.33a5.78,5.78,0,0,1-.71,0c-.07-.33.19-.44.34-.59q13.47-13.49,26.95-27a3.72,3.72,0,0,1,.37-.3C230.4,47.51,230.29,47.81,230.22,48.08Z"/><path class="cls-1" d="M196.22,25.55c.35-.47.4-.76-.17-1.11-1-.61-1.92-1.29-2.84-2-.54-.41-.84-.38-1.22.21-.82,1.27-1.73,2.49-2.58,3.74-.23.35-.4.47-.83.23-1.94-1.13-2-1.11-3.2.69-.21.3-.43.58-.61.89s-.51.4-.2.7.46-.12.64-.27a2.61,2.61,0,0,1,2.91-.37,2.45,2.45,0,0,1,1.38,2.34A2.52,2.52,0,0,1,185.79,33c-.46-.22-.73-.43-1.13.15q-3.33,4.91-6.76,9.73c-.38.54-.26.8.23,1.13,1.07.7,2.12,1.43,3.14,2.19a1.61,1.61,0,0,0,1.66.22c5.53-1.79,11.06-3.61,16.63-5.28a3.8,3.8,0,0,0,2.94-2.69c.45-1.47.44-1.88-.88-2.8-2.48-1.74-5-3.5-7.48-5.18-.78-.53-.85-.91-.27-1.64C194.72,27.81,195.42,26.64,196.22,25.55Zm.18,11.67L185.46,41c1.29-1.85,2.41-3.49,3.58-5.09.6-.82,1-2.21,1.87-2.29s1.64,1,2.46,1.53Z"/><path class="cls-1" d="M184.77,16.86a3.17,3.17,0,0,0-.91.21,18.42,18.42,0,0,0,7.42,35.71c9.72-.64,17.27-8.66,17.31-19A18.42,18.42,0,0,0,189.4,16c-.35,0-1-.24-1,.52s.66.4,1,.42c1.11.09,2.25,0,3.35.19a17.45,17.45,0,1,1-18.06,9,17.21,17.21,0,0,1,9.59-8.23c.29-.11.8,0,.73-.61C185.05,17.11,185,16.85,184.77,16.86Z"/><path class="cls-1" d="M19.11,62.62c-.78.78-1.54,1.6-2.37,2.33-.59.51-.52.84,0,1.3,1,.84,2,1.71,3,2.61.48.45.8.43,1.27-.06,1.46-1.53,3-3,4.43-4.55a2.32,2.32,0,0,1,2.64-.71c-2.2,2.14-4.39,4.27-6.65,6.49A34.24,34.24,0,0,0,26,72.73a1.11,1.11,0,0,0,1.55-.27c2.46-2.52,5-4.95,7.43-7.5a2.71,2.71,0,0,1,2.66-1.07L28,73.5a25.62,25.62,0,0,0,6.45,1.88c.46.07.66-.39.93-.66,3.49-3.47,7-6.92,10.42-10.45a4.14,4.14,0,0,1,3.41-1.34L36.47,75.69a31,31,0,0,0,8.07-.06c.43-.07.64-.46.92-.74,4.67-4.66,9.36-9.3,14-14a9.88,9.88,0,0,1,3.93-2.13L47.28,74.84l.26.3a31.71,31.71,0,0,0,13.29-6.22c9.29-7.43,13.74-17.14,13.09-29C73.1,24.83,61.06,11.55,46.23,9.15a24.59,24.59,0,0,0-4.52-.47c-.9,0-1-.36-.83-1.08.24-1.17.51-2.34.64-3.53.09-.79.38-1,1.14-.93A37,37,0,0,1,60.84,8.88c11.78,7.57,18.1,18.36,18.69,32.43a47.38,47.38,0,0,1-1,10.67l2.37-2.36A12.79,12.79,0,0,1,82,48.53c.23-.19.39-.85.88-.29s.73.85.07,1.38c-1.88,1.53-3.15,3.71-5.34,4.91-.18.1-.2.49-.3.75C71.52,70.13,60.82,79.07,45,81.14A39.19,39.19,0,0,1,29.32,4.61c.83-.25,1.25-.31,1.32.78a9.16,9.16,0,0,0,.82,3.24c.42.9.11,1.16-.76,1.44C19.32,13.75,11.6,21.25,8.16,32.69,4.78,44,7.07,54.31,14.32,63.58c.65.84,1,.82,1.69.06S17.56,61.58,19.11,62.62Z"/><path class="cls-1" d="M44.43,40.78c4.64.1,7.38,3.93,6.06,8.23-1.27,4.1-7.05,7.21-11.14,6a10.09,10.09,0,0,1-3.76-2.27c-.35-.31-.47-.57-.07-.95s.92-1,1.42-1.47a2.08,2.08,0,0,1,3-.32c2,1.2,3.66,1.08,5-.36a3.14,3.14,0,0,0,.15-4.07c-.73-1.19-1.6-1.45-3.22-1a2.3,2.3,0,0,1-.35.1c-.68.14-1.48,1-1.93.55a8.84,8.84,0,0,1-1.34-2.51c-.17-.36.11-.49.35-.64.44-.27.91-.51,1.32-.81,1.48-1.08,1.78-2,1.14-3.48s-1.6-2-2.88-1.79a3.22,3.22,0,0,0-2.68,3.09c0,1.88-.25,2.15-2,2.68l-.69.2c-1.79.51-1.89.42-2-1.43-.28-3.69,1.47-6.16,4.58-7.86.46-.25.76-.34,1.21.15a1,1,0,0,0,1.73-.46c.2-.9.73-.89,1.39-.89,3.92,0,7,3.5,6,7A10.24,10.24,0,0,1,44.43,40.78Z"/><path class="cls-1" d="M22.89,43.54a17.45,17.45,0,0,0,34.8,1.89,17.36,17.36,0,0,0-10-17.78c-.25-.11-.51-.23-.77-.33s-.34-.38-.23-.68.39-.3.66-.19a18.32,18.32,0,1,1-4-1.16l.58.14c.32.08.79,0,.6.6s-.49.4-.86.33a16.54,16.54,0,0,0-7.94.26A17.48,17.48,0,0,0,22.89,43.54Z"/><path class="cls-1" d="M79.3,22.63c-1.06-1.52-2-2.91-3-4.25a.67.67,0,0,1,0-1A40,40,0,0,1,89.58,7c.63-.3.88-.06,1.06.48.45,1.31.88,2.64,1.35,4,.13.37.12.56-.26.75A34,34,0,0,0,79.3,22.63Z"/><path class="cls-1" d="M123.06,6.69a38,38,0,0,0-22-3.27c-.64.08-1,.24-1,1,.1,1.31.12,2.63.13,4,0,.71.28.84,1,.72a31.72,31.72,0,0,1,11.08,0,33.66,33.66,0,0,1,24,49,21.16,21.16,0,0,1-2.61,4c-.07-.53-.15-.88-.17-1.23a18.33,18.33,0,0,0-16.76-17.35c-.25,0-.77-.35-.79.31,0,.44.25.65.69.62a1.46,1.46,0,0,1,.36,0,17.42,17.42,0,0,1,15.59,17.07,3.45,3.45,0,0,1-.35,2.43,27.69,27.69,0,0,1-4.61,4.49c0-.66-.13-1.33.13-1.65.94-1.16,2-2.2,3.31-3.57-1.34.31-2.37.39-3.15,1.17-.32.31-.45.41-.76-.09-1.83-2.91-4-3.8-7.41-3.17a14.67,14.67,0,0,0-5.45,2.46c1.54-3.85,3-7.37,4.5-11.21l-5.08,2.5A4.94,4.94,0,0,0,111.12,58c-.81,2.53-1.56,5.1-2.61,7.55a20.78,20.78,0,0,0-.76,4.58,6.39,6.39,0,0,0,.52,2.67.9.9,0,0,1-.26,1.33c-.75.55-1.13,1.59-2.16,1.77-1.25.21-2-.7-2.72-1.44-1.8-1.75-1.8-1.76,0-3.54,1.47-1.47,3-2.93,4.4-4.41.24-.25.75-.42.51-1-1.15-.34-1.9.22-2.65,1-1.35,1.47-2.82,2.83-4.21,4.27-.47.48-.72.48-1-.13-.56-1.06-1-2.15-1.51-3.25s-.48-2.12.65-2.88c.44-.3.84-.66,1.24-1-1.17-1.19-1.92-.62-2.74.24a20.72,20.72,0,0,1,.06-4.12c1.19-7.38,5.29-12.32,12.44-14.64.47-.16.87-.37.69-.89s-.6-.12-.88,0A18.37,18.37,0,0,0,96.87,63.93a1.51,1.51,0,0,1-.46,1.47c-1.92,1.88-3.81,3.77-5.69,5.69-.4.4-.7.52-1.21.16-1.06-.77-2.15-1.51-3.26-2.21-.74-.47-.86-.79-.14-1.48,2.46-2.34,4.83-4.78,7.26-7.15.5-.48.49-.69-.06-1.14s-.9-.09-1.25.26c-2.4,2.41-4.81,4.8-7.19,7.23-.45.45-.75.6-1.24,0-.74-.83-1.53-1.63-2.33-2.4-.5-.48-.43-.8,0-1.26,2.3-2.22,4.55-4.49,6.83-6.73.48-.47.94-.78.2-1.5s-1,.07-1.26.36c-2.24,2.22-4.45,4.48-6.68,6.71-.18.19-.44.62-.63.42-.86-.92-.93.14-1.18.47-.7.92-1.22,2-2,2.83s-.47,1.29.12,2a39.7,39.7,0,0,0,10,8.36,39,39,0,0,0,20.93,5.42c3.5-.07,6.87-.89,10.3-1.41A16.11,16.11,0,0,0,125,77.38c3.55-2.58,7.2-5,10.19-8.32,8.46-9.28,12-20.21,10.13-32.58C143.25,22.73,135.59,12.76,123.06,6.69Zm-28.44,67c-.81-.32-1.61-.68-2.41-1-.4-.17-.72-.34-.23-.82,1.75-1.72,3.48-3.47,5.35-5.36a17.47,17.47,0,0,0,2.16,5,.79.79,0,0,1-.16,1.18C97.34,74.75,97.35,74.77,94.62,73.7Zm4.61,1.42c0-.14,0-.19,0-.22,1.28-1.7,1.28-1.7,2.76-.21.25.25.53.46,1,.87A13.5,13.5,0,0,1,99.23,75.12Zm9.29.72c.52-.72.93-1.49,1.73-.2A3.69,3.69,0,0,1,108.52,75.84Zm6.54-9a.72.72,0,0,1,.32-.28c.11,0,.22,0,.14.21a1.35,1.35,0,0,1-.31.25C115.06,67.12,115,67,115.06,66.88Zm-.7.68s.16,0,.34,0a4.8,4.8,0,0,1-.36.38c-.09.07-.24.06-.22-.07A.64.64,0,0,1,114.36,67.56Zm2,11.87h-2.29V79.3h2.3Zm4.93-8.82A5.84,5.84,0,0,1,117,72.94a2.67,2.67,0,0,1-2.28-.82c-1.09-1.08-1.1-1.53,0-2.59s2.22-2.17,3.54-3.46h-1.1c-.23.23-.5.32-.73.05,0-.05.28-.29.52-.31.55-.1,1.09-.24,1.64-.29a3,3,0,0,1,3.09,1.61A3,3,0,0,1,121.31,70.61Z"/><path class="cls-1" d="M114.09,79.43h2.29V79.3h-2.3Z"/><path class="cls-1" d="M117,65.81c-.24,0-.56.26-.52.31.23.27.5.18.73-.05C116.93,66.12,116.86,66,117,65.81Z"/><path class="cls-1" d="M117.16,66.07l-.21-.26C116.86,66,116.93,66.12,117.16,66.07Z"/><path class="cls-1" d="M115.21,67.06a1.35,1.35,0,0,0,.31-.25c.08-.2,0-.26-.14-.21a.72.72,0,0,0-.32.28C115,67,115.06,67.12,115.21,67.06Z"/><path class="cls-1" d="M114.34,68a4.8,4.8,0,0,0,.36-.38c-.18,0-.3-.08-.34,0a.64.64,0,0,0-.24.35C114.1,68,114.25,68.05,114.34,68Z"/></svg>