<svg id="Layer_1" data-name="Layer 1" xmlns="http://www.w3.org/2000/svg" viewBox="0 0 200 200"><defs><style>.cls-1{fill:#2ab34b;}</style></defs><title>sign-up-confirmation</title><path class="cls-1" d="M100,3.6A96.4,96.4,0,1,0,196.4,100,96.5,96.5,0,0,0,100,3.6Zm0,182.8A86.4,86.4,0,1,1,186.4,100,86.5,86.5,0,0,1,100,186.4Z"/><path class="cls-1" d="M100,33.19A66.81,66.81,0,1,0,166.81,100,66.88,66.88,0,0,0,100,33.19Zm0,128.62A61.81,61.81,0,1,1,161.81,100,61.88,61.88,0,0,1,100,161.81Z"/><path class="cls-1" d="M100,3.6A96.4,96.4,0,1,0,196.4,100,96.5,96.5,0,0,0,100,3.6Zm0,182.8A86.4,86.4,0,1,1,186.4,100,86.5,86.5,0,0,1,100,186.4Z"/><path class="cls-1" d="M100,33.19A66.81,66.81,0,1,0,166.81,100,66.88,66.88,0,0,0,100,33.19Zm0,128.62A61.81,61.81,0,1,1,161.81,100,61.88,61.88,0,0,1,100,161.81Z"/><path class="cls-1" d="M61.82,100.07l8.9-6.84A3.26,3.26,0,0,1,72,92.64a4.62,4.62,0,0,1,1.48-.06A3.86,3.86,0,0,1,74.9,93,3.61,3.61,0,0,1,76,94L97.5,122a36,36,0,0,1,1-4.51,28.09,28.09,0,0,1,1.84-4.56l28.06-57.62L136,65.13a9.14,9.14,0,0,1,2.17,5.48,10.45,10.45,0,0,1-1.19,5l-30,58.31c-.45.85-1,1.84-1.76,3a15.18,15.18,0,0,1-3.48,3.5l-5.67,4.36Z"/></svg>