<svg id="Layer_1" data-name="Layer 1" xmlns="http://www.w3.org/2000/svg" viewBox="0 0 257.57 71.17"><defs><style>.cls-1{fill:#231f20;}.cls-2{fill:#2ab34b;}</style></defs><title>cp3-web-icons</title><path class="cls-1" d="M16,31.58a3.9,3.9,0,0,1-.59.49,1.28,1.28,0,0,1-.72.18,1.33,1.33,0,0,1-.73-.2l-.69-.44a5,5,0,0,0-.93-.44,4.13,4.13,0,0,0-1.39-.2,4.56,4.56,0,0,0-1.89.38,4.18,4.18,0,0,0-1.46,1.08,6,6,0,0,0-1,1.72,10.86,10.86,0,0,0-.64,2.29,6.16,6.16,0,0,0,.34,4.12A2.83,2.83,0,0,0,8.92,42a4.64,4.64,0,0,0,1.63-.24,5.43,5.43,0,0,0,1.08-.54l.85-.55a1.61,1.61,0,0,1,.91-.25,1,1,0,0,1,.95.49l1.32,2a11.94,11.94,0,0,1-2.16,1.62,12.24,12.24,0,0,1-2.18,1A12.45,12.45,0,0,1,9.17,46a16.3,16.3,0,0,1-2,.14,8.1,8.1,0,0,1-3.25-.65,6.53,6.53,0,0,1-2.49-1.88,7.18,7.18,0,0,1-1.39-3,10.7,10.7,0,0,1,0-4.11,12.84,12.84,0,0,1,1.29-3.77A10.71,10.71,0,0,1,7,27.6a11.85,11.85,0,0,1,4.27-.73,9.46,9.46,0,0,1,3.85.7,7.44,7.44,0,0,1,2.71,2.05Z"/><path class="cls-1" d="M16.7,45.82l4.75-26.95H27.2l-1.75,9.92A11.84,11.84,0,0,1,28,27.4a7.78,7.78,0,0,1,3-.53,6.16,6.16,0,0,1,2.7.53,4.4,4.4,0,0,1,1.79,1.47,5.1,5.1,0,0,1,.86,2.25A8.83,8.83,0,0,1,36.22,34L34.13,45.82H28.38L30.47,34a2.91,2.91,0,0,0-.27-2.14,2,2,0,0,0-1.77-.76,4.47,4.47,0,0,0-1.85.4,8.33,8.33,0,0,0-1.79,1.06l-2.34,13.3Z"/><path class="cls-1" d="M46,27.15,43.86,39a2.89,2.89,0,0,0,.27,2.14,2,2,0,0,0,1.78.76,4.74,4.74,0,0,0,1.84-.38,8.66,8.66,0,0,0,1.79-1.06l2.34-13.31h5.75L54.34,45.82H50.78a1.1,1.1,0,0,1-1.25-.94l-.16-1.08a14,14,0,0,1-1.31,1,9.75,9.75,0,0,1-1.4.72,9.5,9.5,0,0,1-1.54.47,8.7,8.7,0,0,1-1.74.17,6.29,6.29,0,0,1-2.69-.53,4.52,4.52,0,0,1-1.79-1.49A5.22,5.22,0,0,1,38,41.84,8.84,8.84,0,0,1,38.11,39L40.2,27.15Z"/><path class="cls-1" d="M74.24,31.58a3.9,3.9,0,0,1-.59.49,1.28,1.28,0,0,1-.72.18,1.33,1.33,0,0,1-.73-.2l-.69-.44a5,5,0,0,0-.93-.44,4.13,4.13,0,0,0-1.39-.2,4.59,4.59,0,0,0-1.89.38,4.18,4.18,0,0,0-1.46,1.08,6,6,0,0,0-1,1.72,10.86,10.86,0,0,0-.64,2.29,6.16,6.16,0,0,0,.34,4.12A2.83,2.83,0,0,0,67.17,42a4.64,4.64,0,0,0,1.63-.24,5.83,5.83,0,0,0,1.09-.54l.84-.55a1.61,1.61,0,0,1,.91-.25,1,1,0,0,1,1,.49l1.32,2a11.94,11.94,0,0,1-2.16,1.62,12.24,12.24,0,0,1-2.18,1,12.45,12.45,0,0,1-2.15.48,16.3,16.3,0,0,1-2,.14,8.1,8.1,0,0,1-3.25-.65,6.42,6.42,0,0,1-2.48-1.88,7.19,7.19,0,0,1-1.4-3,10.7,10.7,0,0,1,0-4.11,12.84,12.84,0,0,1,1.29-3.77,10.71,10.71,0,0,1,5.73-5.07,11.85,11.85,0,0,1,4.27-.73,9.46,9.46,0,0,1,3.85.7,7.44,7.44,0,0,1,2.71,2.05Z"/><path class="cls-1" d="M85.45,18.87,82.79,34h.85a2,2,0,0,0,.85-.15,1.93,1.93,0,0,0,.64-.52l4.56-5.26a2.59,2.59,0,0,1,.87-.68,2.83,2.83,0,0,1,1.14-.22H97L90.83,33.8a7,7,0,0,1-.92.82,7.56,7.56,0,0,1-1,.65,4.38,4.38,0,0,1,1.16,1.62l3.84,8.93H88.71a2.52,2.52,0,0,1-1.09-.21,1.26,1.26,0,0,1-.64-.73l-2.47-6.6a1.09,1.09,0,0,0-.43-.59,1.83,1.83,0,0,0-.81-.13H82.16L80.7,45.82H75L79.7,18.87Z"/><path class="cls-1" d="M104.35,17.9a7.91,7.91,0,0,1,.7,2.27,7.07,7.07,0,0,1,0,2.25,8.55,8.55,0,0,1-1.69,3.69,14.42,14.42,0,0,1-3.64,3.26l-1.63-1.05a.78.78,0,0,1-.27-.31.6.6,0,0,1,0-.35,1,1,0,0,1,.16-.38,1.67,1.67,0,0,1,.28-.31c.16-.14.34-.32.55-.53a6.25,6.25,0,0,0,1.14-1.66,4.2,4.2,0,0,0,.36-1.12,4.54,4.54,0,0,0,0-1.38,5.75,5.75,0,0,0-.49-1.59,1,1,0,0,1-.09-.57,1,1,0,0,1,.33-.58,1.89,1.89,0,0,1,.68-.4Z"/><path class="cls-1" d="M117.53,31.24a1.89,1.89,0,0,1-.56.49,1.46,1.46,0,0,1-.66.14,2,2,0,0,1-.79-.17l-.81-.37a8.14,8.14,0,0,0-1-.37,4.78,4.78,0,0,0-1.33-.17,3.41,3.41,0,0,0-1.75.4,1.65,1.65,0,0,0-.78,1.13,1,1,0,0,0,.23.86,2.78,2.78,0,0,0,.9.61,12,12,0,0,0,1.34.49c.51.16,1,.33,1.54.52a13,13,0,0,1,1.52.68,5.21,5.21,0,0,1,1.26,1,3.32,3.32,0,0,1,.76,1.38,4.29,4.29,0,0,1,0,1.94,7.06,7.06,0,0,1-2.87,4.58,9.22,9.22,0,0,1-2.77,1.31,12.73,12.73,0,0,1-3.56.47,10.45,10.45,0,0,1-1.94-.18,11.45,11.45,0,0,1-1.81-.49,8.42,8.42,0,0,1-1.57-.73,5.33,5.33,0,0,1-1.17-.91l1.69-2a2.36,2.36,0,0,1,.68-.56A1.79,1.79,0,0,1,105,41a1.7,1.7,0,0,1,.87.21l.78.47a5.5,5.5,0,0,0,1,.47,4.59,4.59,0,0,0,1.53.22,4.31,4.31,0,0,0,1.15-.14,2.43,2.43,0,0,0,.81-.37,1.89,1.89,0,0,0,.5-.52,1.54,1.54,0,0,0,.23-.59,1,1,0,0,0-.23-.92,2.55,2.55,0,0,0-.91-.62,9.46,9.46,0,0,0-1.35-.49c-.51-.15-1-.32-1.55-.51a9.92,9.92,0,0,1-1.52-.7,4.28,4.28,0,0,1-1.25-1,3.68,3.68,0,0,1-.75-1.52,5.11,5.11,0,0,1,0-2.18,6.46,6.46,0,0,1,.87-2.26,6.91,6.91,0,0,1,1.75-1.88,8.9,8.9,0,0,1,2.6-1.29,11.31,11.31,0,0,1,3.42-.47,10.41,10.41,0,0,1,2,.18,8.85,8.85,0,0,1,1.74.5,7.32,7.32,0,0,1,1.42.76,6,6,0,0,1,1.08,1Z"/><path class="cls-1" d="M123.78,51.74l4.33-24.59h3.56a1.39,1.39,0,0,1,.86.24,1,1,0,0,1,.39.7l.18,1.37a11.79,11.79,0,0,1,1.39-1.08,9,9,0,0,1,1.52-.84,9.34,9.34,0,0,1,1.67-.55,8.74,8.74,0,0,1,1.88-.2,5.44,5.44,0,0,1,2.67.65,4.87,4.87,0,0,1,1.87,1.87,7.68,7.68,0,0,1,.93,3,13.34,13.34,0,0,1-.18,4,13.7,13.7,0,0,1-1.29,3.89,12.22,12.22,0,0,1-2.23,3.1,10,10,0,0,1-3,2,8.38,8.38,0,0,1-3.47.74,6.06,6.06,0,0,1-2.45-.42,5.26,5.26,0,0,1-1.66-1.11l-1.26,7.16Zm13-20.68a5.23,5.23,0,0,0-1.16.12,5.43,5.43,0,0,0-1,.33,4.73,4.73,0,0,0-.9.55,11.59,11.59,0,0,0-.88.76l-1.39,7.92a2.88,2.88,0,0,0,1.23,1,4.35,4.35,0,0,0,1.55.27,4,4,0,0,0,1.52-.3,3.91,3.91,0,0,0,1.33-1A6.8,6.8,0,0,0,138.18,39a11.72,11.72,0,0,0,.74-2.63,11.84,11.84,0,0,0,.21-2.48,4.46,4.46,0,0,0-.33-1.63,1.85,1.85,0,0,0-.8-.89A2.52,2.52,0,0,0,136.81,31.06Z"/><path class="cls-1" d="M156.12,22a3.23,3.23,0,0,1-.5,1.25,4.17,4.17,0,0,1-.94,1,4.73,4.73,0,0,1-1.24.7,4,4,0,0,1-1.41.26,3,3,0,0,1-1.27-.26,2.84,2.84,0,0,1-1-.7,2.53,2.53,0,0,1-.56-1,2.75,2.75,0,0,1-.05-1.25,3.58,3.58,0,0,1,.49-1.28,4.37,4.37,0,0,1,.93-1,4.44,4.44,0,0,1,1.21-.7,3.69,3.69,0,0,1,1.36-.25,3.26,3.26,0,0,1,1.31.25,2.78,2.78,0,0,1,1,.7,2.74,2.74,0,0,1,.58,1A2.89,2.89,0,0,1,156.12,22Z"/><polygon class="cls-1" points="154.55 27.15 151.26 45.82 145.51 45.82 148.81 27.15 154.55 27.15"/><path class="cls-1" d="M171.35,31.58a3.9,3.9,0,0,1-.59.49,1.28,1.28,0,0,1-.72.18,1.33,1.33,0,0,1-.73-.2l-.69-.44a5,5,0,0,0-.93-.44,4.13,4.13,0,0,0-1.39-.2,4.59,4.59,0,0,0-1.89.38A4.18,4.18,0,0,0,163,32.43a6,6,0,0,0-1,1.72,10.86,10.86,0,0,0-.64,2.29,6.22,6.22,0,0,0,.34,4.12A2.83,2.83,0,0,0,164.28,42a4.64,4.64,0,0,0,1.63-.24,5.83,5.83,0,0,0,1.09-.54l.84-.55a1.61,1.61,0,0,1,.91-.25,1,1,0,0,1,.95.49l1.32,2a11.94,11.94,0,0,1-2.16,1.62A11.55,11.55,0,0,1,164.53,46a16.3,16.3,0,0,1-2.05.14,8.1,8.1,0,0,1-3.25-.65,6.42,6.42,0,0,1-2.48-1.88,7.19,7.19,0,0,1-1.4-3,10.7,10.7,0,0,1,0-4.11,12.84,12.84,0,0,1,1.29-3.77,10.71,10.71,0,0,1,5.73-5.07,11.85,11.85,0,0,1,4.27-.73,9.46,9.46,0,0,1,3.85.7,7.44,7.44,0,0,1,2.71,2.05Z"/><path class="cls-1" d="M182.56,18.87,179.9,34h.85a2,2,0,0,0,.85-.15,1.93,1.93,0,0,0,.64-.52l3.56-5.26a2.59,2.59,0,0,1,.87-.68,2.83,2.83,0,0,1,1.14-.22h5.27l-5.14,6.65a7,7,0,0,1-.92.82,8.26,8.26,0,0,1-1,.65,4.38,4.38,0,0,1,1.16,1.62L193,45.82h-5.19a2.52,2.52,0,0,1-1.09-.21,1.26,1.26,0,0,1-.64-.73l-4.47-6.6a1.09,1.09,0,0,0-.43-.59,1.83,1.83,0,0,0-.81-.13h-1.11l-1.46,8.26h-5.75l4.75-26.95Z"/><path class="cls-2" d="M223.87.05a35.64,35.64,0,0,0-35.26,23H194a30.56,30.56,0,1,1,.5,26.09H189A35.58,35.58,0,1,0,223.87.05Z"/><path class="cls-2" d="M226.54,22.63a10.56,10.56,0,0,1,3.37,1.27,8.24,8.24,0,0,1,2.27,2A6.29,6.29,0,0,1,233.33,31a8.66,8.66,0,0,1-.71,2.09,5.06,5.06,0,0,1-1.09,1.44,4.83,4.83,0,0,1-1.48.89,7.83,7.83,0,0,1-1.85.44q4.08,2.4,3.16,6.72a8.1,8.1,0,0,1-1.51,3.4,7.68,7.68,0,0,1-2.58,2.08A9,9,0,0,1,224,49a12.75,12.75,0,0,1-3.63-.25,12.54,12.54,0,0,1-3.27-1.11,7.93,7.93,0,0,1-2.35-1.78,8.55,8.55,0,0,1-1.55-2.57,14.55,14.55,0,0,1-.84-3.41l2.71-.46a3.33,3.33,0,0,1,.69-.06,6,6,0,0,1,.63.08,2.48,2.48,0,0,1,1,.45,1.47,1.47,0,0,1,.56.79,6.72,6.72,0,0,0,1.28,2.49,3.64,3.64,0,0,0,2,1.11,4,4,0,0,0,1.71,0,3.69,3.69,0,0,0,1.33-.54,3.27,3.27,0,0,0,.93-1,3.33,3.33,0,0,0,.5-1.2,8,8,0,0,0,.2-1.51,2,2,0,0,0-.42-1.27A3.78,3.78,0,0,0,224,37.72a14.15,14.15,0,0,0-3-.91l.8-3.77a11.64,11.64,0,0,0,2.72.32,4.21,4.21,0,0,0,1.71-.34,2.13,2.13,0,0,0,1-.89,5.14,5.14,0,0,0,.47-1.32,3.44,3.44,0,0,0-.26-2.49A3,3,0,0,0,225.27,27a3.8,3.8,0,0,0-1.2-.07,3.55,3.55,0,0,0-1,.28,3.29,3.29,0,0,0-.87.55,3.84,3.84,0,0,0-.67.78,2.7,2.7,0,0,1-1,1,2,2,0,0,1-1.29.09,3.61,3.61,0,0,1-.38-.1l-.42-.14-2.86-1.14a9.53,9.53,0,0,1,1.82-3.11A8.31,8.31,0,0,1,220,23.2a8.43,8.43,0,0,1,3.1-.83A12,12,0,0,1,226.54,22.63Z"/><path class="cls-2" d="M223.05,14.83A20.76,20.76,0,1,0,243.8,35.58,20.78,20.78,0,0,0,223.05,14.83Zm0,40.51A19.76,19.76,0,1,1,242.8,35.58,19.77,19.77,0,0,1,223.05,55.34Z"/></svg>