<svg id="Layer_1" data-name="Layer 1" xmlns="http://www.w3.org/2000/svg" viewBox="0 0 200 200"><defs><style>.cls-1{fill:#2ab34b;}.cls-2{fill:#419644;}</style></defs><title>cp3-winning-icon</title><path class="cls-1" d="M100,3.6A96.4,96.4,0,1,0,196.4,100,96.5,96.5,0,0,0,100,3.6Zm0,182.8A86.4,86.4,0,1,1,186.4,100,86.5,86.5,0,0,1,100,186.4Z"/><path class="cls-2" d="M100,33.19A66.81,66.81,0,1,0,166.81,100,66.88,66.88,0,0,0,100,33.19Zm0,128.62A61.81,61.81,0,1,1,161.81,100,61.88,61.88,0,0,1,100,161.81Z"/><path class="cls-1" d="M132,66.21a27.86,27.86,0,0,0-7.87-6.94,37,37,0,0,0-11.7-4.43A42.2,42.2,0,0,0,100.25,54a29.51,29.51,0,0,0-10.77,2.86,28.75,28.75,0,0,0-8.87,6.74,33.33,33.33,0,0,0-6.34,10.8l10,4c.49.19,1,.35,1.44.49s.92.26,1.34.35a6.66,6.66,0,0,0,4.45-.33,8.93,8.93,0,0,0,3.4-3.44,12.75,12.75,0,0,1,2.32-2.7,11.46,11.46,0,0,1,3-1.92,12.61,12.61,0,0,1,3.63-1,13.25,13.25,0,0,1,4.16.25q5.36,1.14,7.37,4.53c1.34,2.27,1.63,5.16.89,8.66a17.07,17.07,0,0,1-1.63,4.58,7.19,7.19,0,0,1-3.32,3.09,14.65,14.65,0,0,1-6,1.2A41.54,41.54,0,0,1,95.88,91L93.1,104.11a50.3,50.3,0,0,1,10.43,3.14,13.51,13.51,0,0,1,5.16,3.75,6.85,6.85,0,0,1,1.46,4.43,30.74,30.74,0,0,1-.68,5.26,12.34,12.34,0,0,1-1.74,4.17,11.57,11.57,0,0,1-3.24,3.3,12.62,12.62,0,0,1-4.62,1.9,14.2,14.2,0,0,1-5.92-.14A12.63,12.63,0,0,1,87,126a22.84,22.84,0,0,1-4.46-8.64,5.32,5.32,0,0,0-2-2.75,8.35,8.35,0,0,0-3.46-1.53,14.35,14.35,0,0,0-2.21-.28,9.86,9.86,0,0,0-2.38.2l-9.42,1.58A50,50,0,0,0,66,126.48a29.11,29.11,0,0,0,5.38,8.91,27.79,27.79,0,0,0,8.16,6.21,46,46,0,0,0,11.37,3.85,43.67,43.67,0,0,0,12.59.85,31.32,31.32,0,0,0,11.4-3.05,26,26,0,0,0,9-7.24,27.67,27.67,0,0,0,5.26-11.79q3.18-15-11-23.36a26.4,26.4,0,0,0,6.41-1.51,16.44,16.44,0,0,0,5.13-3.1,17,17,0,0,0,3.8-5A29,29,0,0,0,136,84a21.69,21.69,0,0,0-4-17.78Z"/></svg>