<svg id="Layer_1" data-name="Layer 1" xmlns="http://www.w3.org/2000/svg" viewBox="0 0 100 100"><defs><style>.cls-1{fill:#2ab34b;}.cls-2{fill:#419644;}</style></defs><title>cp3-web-icons</title><path class="cls-1" d="M87.6,38.62H85.65a37.87,37.87,0,0,0-2.4-5.78l1.38-1.38a8.47,8.47,0,0,0,0-12l-4.08-4.09a8.49,8.49,0,0,0-12,0l-1.38,1.38a37.87,37.87,0,0,0-5.78-2.4V12.4a8.5,8.5,0,0,0-8.49-8.49H47.11a8.5,8.5,0,0,0-8.49,8.49v1.95a37.87,37.87,0,0,0-5.78,2.4l-1.38-1.38a8.47,8.47,0,0,0-12,0l-4.09,4.08a8.49,8.49,0,0,0,0,12l1.38,1.38a37.87,37.87,0,0,0-2.4,5.78H12.4a8.5,8.5,0,0,0-8.49,8.49v5.78a8.5,8.5,0,0,0,8.49,8.49h1.95a37.87,37.87,0,0,0,2.4,5.78l-1.38,1.38a8.47,8.47,0,0,0,0,12l4.08,4.09a8.49,8.49,0,0,0,12,0l1.38-1.38a37.87,37.87,0,0,0,5.78,2.4V87.6a8.5,8.5,0,0,0,8.49,8.49h5.78a8.5,8.5,0,0,0,8.49-8.49V85.65a37.87,37.87,0,0,0,5.78-2.4l1.38,1.38a8.47,8.47,0,0,0,12,0l4.09-4.08a8.49,8.49,0,0,0,0-12l-1.38-1.38a37.87,37.87,0,0,0,2.4-5.78H87.6a8.5,8.5,0,0,0,8.49-8.49V47.11A8.5,8.5,0,0,0,87.6,38.62Zm3.09,14.27A3.1,3.1,0,0,1,87.6,56h-4A2.7,2.7,0,0,0,81,58a32,32,0,0,1-3.42,8.25A2.71,2.71,0,0,0,78,69.54l2.83,2.82a3.1,3.1,0,0,1,0,4.37l-4.1,4.09a3.09,3.09,0,0,1-4.36,0L69.54,78a2.71,2.71,0,0,0-3.29-.41A32,32,0,0,1,58,81a2.7,2.7,0,0,0-2,2.62v4a3.1,3.1,0,0,1-3.09,3.09H47.11A3.1,3.1,0,0,1,44,87.6v-4A2.7,2.7,0,0,0,42,81a32,32,0,0,1-8.25-3.42,2.71,2.71,0,0,0-3.29.41l-2.82,2.83a3.1,3.1,0,0,1-4.37,0l-4.09-4.1a3.09,3.09,0,0,1,0-4.36L22,69.54a2.71,2.71,0,0,0,.41-3.29A32,32,0,0,1,19,58a2.7,2.7,0,0,0-2.62-2h-4a3.1,3.1,0,0,1-3.09-3.09V47.11A3.1,3.1,0,0,1,12.4,44h4A2.7,2.7,0,0,0,19,42a32,32,0,0,1,3.42-8.25A2.71,2.71,0,0,0,22,30.46l-2.83-2.82a3.1,3.1,0,0,1,0-4.37l4.1-4.09a3.09,3.09,0,0,1,4.36,0L30.46,22a2.71,2.71,0,0,0,3.29.41A32,32,0,0,1,42,19a2.7,2.7,0,0,0,2-2.62v-4a3.1,3.1,0,0,1,3.09-3.09h5.78A3.1,3.1,0,0,1,56,12.4v4A2.7,2.7,0,0,0,58,19a31.9,31.9,0,0,1,8.25,3.42A2.71,2.71,0,0,0,69.54,22l2.82-2.83a3.1,3.1,0,0,1,4.37,0l4.09,4.1a3.08,3.08,0,0,1,0,4.36L78,30.46a2.71,2.71,0,0,0-.41,3.29A32,32,0,0,1,81,42a2.7,2.7,0,0,0,2.62,2h4a3.1,3.1,0,0,1,3.09,3.09Z"/><path class="cls-2" d="M50,29.94A20.06,20.06,0,1,0,70.06,50,20.08,20.08,0,0,0,50,29.94Zm0,34.71A14.65,14.65,0,1,1,64.65,50,14.66,14.66,0,0,1,50,64.65Z"/></svg>