<svg id="Layer_1" data-name="Layer 1" xmlns="http://www.w3.org/2000/svg" viewBox="0 0 100 100"><defs><style>.cls-1{fill:#2ab34b;}.cls-2{fill:#419644;}</style></defs><title>cp3-web-icons</title><path class="cls-1" d="M87.81,29.58A42.87,42.87,0,0,0,32.7,13.31L27.55,5.46a.53.53,0,0,0-1,.2l-1.46,8.28L23.53,23a.52.52,0,0,0,.4.6l9,2.15,8.18,1.95a.53.53,0,0,0,.56-.8L36.18,18.6a36.6,36.6,0,1,1-13.66,56h0A2.75,2.75,0,0,0,18.83,74l-.28.18a3.18,3.18,0,0,0-1.37,2.13,3.13,3.13,0,0,0,.66,2.46,42.85,42.85,0,0,0,70-49.19Z"/><path class="cls-2" d="M50.1,38.39a2.39,2.39,0,0,0-2.4,2.4V55.11a2.36,2.36,0,0,0,.44,1.38,2.41,2.41,0,0,0,2.21,1.45H68.11a2.41,2.41,0,1,0,0-4.81H52.5V40.79A2.39,2.39,0,0,0,50.1,38.39Z"/><path class="cls-2" d="M17.1,47.93a2.4,2.4,0,0,0-2.4-2.4H8.31a2.4,2.4,0,0,0,0,4.8H14.7A2.4,2.4,0,0,0,17.1,47.93Z"/><path class="cls-2" d="M10.54,34.7l6.11,1.85A2.4,2.4,0,1,0,18,32L11.93,30.1a2.4,2.4,0,0,0-1.39,4.6Z"/><path class="cls-2" d="M19.26,61.87a2.39,2.39,0,0,0-3-1.6l-6.11,1.85a2.4,2.4,0,0,0,1.39,4.6l6.11-1.85A2.4,2.4,0,0,0,19.26,61.87Z"/></svg>