<svg id="Layer_1" data-name="Layer 1" xmlns="http://www.w3.org/2000/svg" viewBox="0 0 100 100"><defs><style>.cls-1{fill:#419644;}.cls-2{fill:#2ab34b;}</style></defs><title>cp3-web-icons</title><path class="cls-1" d="M74.47,47.49a8.22,8.22,0,0,0-8.21,8.21,2,2,0,0,0,3.94,0,4.3,4.3,0,0,1,4.29-4.29,2,2,0,1,0,0-3.92Z"/><path class="cls-1" d="M87.86,41.83c-.48-.46-1-.9-1.52-1.33h0l-7.27-6.17a19.15,19.15,0,0,0-9.76-3.49l.39.39L65.29,26.8h0a6.91,6.91,0,0,0-11.24,3,6.29,6.29,0,0,0-3-1,5.06,5.06,0,0,0-.55,0,6.43,6.43,0,0,0-3.42,1,6.94,6.94,0,0,0-11.25-3h0l-4.42,4.44.39-.39A19.18,19.18,0,0,0,22,34.35l-7.27,6.17h0a16,16,0,0,0-1.53,1.33A19.29,19.29,0,1,0,45.69,58.1a9.74,9.74,0,0,0,9.62,0A19.29,19.29,0,1,0,87.86,41.83ZM26.56,68.88A13.16,13.16,0,1,1,39.72,55.72,13.16,13.16,0,0,1,26.56,68.88Zm24-15a4.28,4.28,0,1,1,4.27-4.27A4.28,4.28,0,0,1,50.52,53.91Zm23.95,15A13.16,13.16,0,1,1,87.63,55.72,13.15,13.15,0,0,1,74.47,68.88Z"/><path class="cls-1" d="M26.56,47.49a8.22,8.22,0,0,0-8.21,8.21,2,2,0,0,0,3.94,0,4.3,4.3,0,0,1,4.29-4.29,2,2,0,1,0,0-3.92Z"/><path class="cls-2" d="M74.47,47.49a8.22,8.22,0,0,0-8.21,8.21,2,2,0,0,0,3.94,0,4.3,4.3,0,0,1,4.29-4.29,2,2,0,1,0,0-3.92Z"/><path class="cls-2" d="M13.88,59.18a13.14,13.14,0,0,1,24.48-9.26l.44-.22a16.11,16.11,0,0,1,3.48-1.2,25.17,25.17,0,0,1,4.32-.56,4.26,4.26,0,0,1,7.88.12c2.76.41,5.79.53,8.08,2.1a13.14,13.14,0,0,1,24.55,9.19c.29-.05.59-.09.87-.15a13.87,13.87,0,0,0,5.7-2.41c0-.36,0-.72,0-1.09a19.12,19.12,0,0,0-5.87-13.87c-.48-.46-1-.9-1.52-1.33l-7.27-6.17a19.15,19.15,0,0,0-9.75-3.49l-4-4h0a6.91,6.91,0,0,0-11.24,3,6.29,6.29,0,0,0-3-1,5.06,5.06,0,0,0-.55,0,6.43,6.43,0,0,0-3.42,1,6.94,6.94,0,0,0-11.25-3h0l-4,4.05A19.14,19.14,0,0,0,22,34.35l-7.27,6.17a16,16,0,0,0-1.53,1.33A19.22,19.22,0,0,0,7.27,55.72c0,.1,0,.19,0,.29a18.76,18.76,0,0,0,3.42,2.07A16.4,16.4,0,0,0,13.88,59.18Z"/><path class="cls-2" d="M26.56,47.49a8.22,8.22,0,0,0-8.21,8.21,2,2,0,0,0,3.94,0,4.3,4.3,0,0,1,4.29-4.29,2,2,0,1,0,0-3.92Z"/></svg>