<?xml version="1.0" standalone="no"?>
<!DOCTYPE svg PUBLIC "-//W3C//DTD SVG 20010904//EN"
 "http://www.w3.org/TR/2001/REC-SVG-20010904/DTD/svg10.dtd">
<svg version="1.0" xmlns="http://www.w3.org/2000/svg"
 width="100.000000pt" height="100.000000pt" viewBox="0 0 100.000000 100.000000"
 preserveAspectRatio="xMidYMid meet">
<metadata>
Created by potrace 1.11, written by Peter Selinger 2001-2013
</metadata>
<g transform="translate(0.000000,100.000000) scale(0.100000,-0.100000)"
fill="#000000" stroke="none">
<path d="M402 964 c-127 -27 -254 -124 -313 -239 -19 -35 -31 -66 -29 -68 6
-6 45 -10 75 -8 13 1 28 15 40 38 32 60 100 122 172 156 61 29 77 32 158 32
80 0 97 -3 155 -31 165 -78 253 -253 215 -424 -10 -45 -57 -137 -88 -171 -116
-129 -313 -161 -465 -77 -49 26 -128 104 -143 140 -9 22 -18 28 -43 29 -36 1
-69 -1 -74 -6 -10 -10 60 -117 108 -165 93 -93 192 -135 325 -139 220 -6 413
141 470 358 19 73 12 203 -14 272 -45 119 -138 220 -246 269 -100 46 -196 56
-303 34z"/>
<path d="M469 779 c-134 -21 -234 -144 -230 -286 5 -236 288 -358 466 -201 75
66 108 152 93 246 -26 165 -164 267 -329 241z m155 -62 c117 -63 165 -200 110
-314 -58 -123 -196 -173 -314 -115 -185 91 -182 344 5 434 48 22 152 20 199
-5z"/>
<path d="M460 668 c-27 -13 -43 -31 -53 -56 -8 -20 -14 -39 -12 -40 2 -2 20
-7 40 -12 31 -7 38 -5 51 15 20 31 52 38 64 15 12 -22 -11 -50 -41 -50 -10 0
-19 -3 -20 -7 -6 -59 -5 -63 22 -63 34 0 57 -25 42 -48 -16 -27 -43 -26 -73 3
-27 26 -29 26 -64 11 l-36 -15 21 -36 c12 -20 34 -42 50 -50 58 -31 149 -12
183 37 21 29 20 96 0 119 -14 16 -14 20 0 47 9 17 15 43 14 58 -3 30 -50 83
-76 85 -9 1 -30 2 -45 3 -15 2 -45 -6 -67 -16z"/>
</g>
</svg>
